<?xml version="1.0" standalone="no"?>
<!DOCTYPE svg PUBLIC "-//W3C//DTD SVG 20010904//EN"
 "http://www.w3.org/TR/2001/REC-SVG-20010904/DTD/svg10.dtd">
<svg version="1.0" xmlns="http://www.w3.org/2000/svg"
 width="2544.000000pt" height="2544.000000pt" viewBox="0 0 2544.000000 2544.000000"
 preserveAspectRatio="xMidYMid meet">
<metadata>
Created by potrace 1.14, written by Peter Selinger 2001-2017
</metadata>
<g transform="translate(0.000000,2544.000000) scale(0.100000,-0.100000)"
fill="#000000" stroke="none">
<path d="M7914 16780 c-3 -2 -22 -6 -44 -7 -36 -2 -112 -27 -170 -56 -143 -70
-271 -232 -317 -403 -10 -39 -10 -5420 0 -5464 21 -90 42 -150 71 -205 33 -65
139 -179 196 -212 76 -45 112 -63 128 -66 9 -1 22 -5 27 -9 42 -25 241 -30
315 -8 30 9 59 17 63 17 27 3 140 68 182 105 106 92 159 175 201 313 16 56 18
127 18 1115 1 586 -3 1061 -8 1068 -5 7 -5 12 0 12 5 0 8 73 6 162 -3 158 -3
174 -1 201 0 6 0 275 0 596 -1 321 0 585 2 587 3 3 31 -29 151 -171 14 -16 29
-35 33 -40 5 -6 26 -31 48 -56 22 -25 49 -57 60 -70 11 -13 58 -69 105 -124
47 -55 94 -111 105 -124 11 -13 25 -28 30 -35 6 -6 35 -40 65 -76 30 -36 57
-67 60 -70 3 -3 43 -50 90 -105 46 -55 89 -105 95 -111 5 -6 26 -30 45 -54 19
-24 43 -51 53 -59 9 -9 17 -19 17 -22 0 -4 12 -20 28 -36 15 -15 46 -51 69
-78 23 -28 51 -61 63 -75 22 -25 52 -61 169 -199 35 -42 68 -77 72 -79 5 -2 9
-8 9 -12 0 -5 10 -20 23 -32 12 -13 42 -48 67 -77 25 -30 50 -59 55 -65 8 -9
69 -81 187 -221 9 -11 26 -31 38 -45 12 -14 40 -47 63 -74 23 -27 61 -70 84
-95 23 -25 43 -52 43 -58 0 -7 3 -13 8 -13 4 0 46 -46 92 -101 47 -56 92 -109
100 -118 9 -9 40 -45 70 -81 52 -61 66 -78 120 -140 12 -14 36 -42 53 -64 18
-21 42 -49 54 -61 12 -13 19 -26 16 -29 -4 -3 -2 -6 4 -6 5 0 54 -53 109 -117
54 -65 108 -129 120 -143 12 -14 54 -63 94 -110 40 -47 86 -101 104 -121 35
-42 75 -89 186 -220 25 -30 57 -66 71 -81 14 -15 36 -42 50 -59 13 -18 29 -37
34 -43 25 -28 84 -96 125 -146 117 -141 202 -203 332 -243 46 -14 90 -26 98
-26 132 -9 208 0 297 36 71 28 177 103 221 154 14 17 31 36 37 43 18 19 60 90
57 99 -1 4 2 7 7 7 8 0 45 105 57 160 5 26 5 1665 -1 4040 -3 1257 -5 1401
-19 1454 -32 115 -77 194 -159 278 -46 48 -148 118 -171 118 -8 0 -16 4 -18 8
-1 5 -39 18 -82 30 -61 16 -100 20 -170 18 -102 -4 -124 -8 -200 -37 -184 -69
-337 -245 -372 -429 -2 -14 -7 -32 -10 -40 -3 -8 -5 -591 -4 -1295 2 -1492 2
-2377 1 -2388 -1 -11 -10 -2 -101 108 -41 50 -79 95 -85 101 -5 6 -28 32 -50
58 -22 27 -48 58 -59 70 -10 11 -37 43 -60 70 -22 27 -50 59 -61 71 -63 71
-75 85 -75 90 0 3 -13 17 -28 32 -16 16 -35 37 -43 49 -12 18 -80 98 -144 170
-44 49 -65 74 -65 79 0 2 -10 14 -22 27 -13 13 -43 47 -68 77 -25 29 -53 63
-63 75 -10 11 -36 41 -57 66 -21 25 -47 55 -57 66 -10 12 -38 45 -63 75 -25
29 -76 89 -113 133 -38 45 -87 103 -110 130 -23 27 -49 57 -57 66 -8 9 -35 41
-60 71 -45 55 -61 74 -102 121 -13 15 -42 48 -63 74 -22 25 -45 52 -50 58 -6
6 -60 70 -120 141 -60 72 -114 135 -120 141 -5 6 -29 33 -51 60 -23 27 -51 59
-62 72 -11 13 -35 41 -54 64 -18 23 -44 54 -58 69 -14 15 -38 44 -55 64 -16
20 -39 47 -50 59 -11 12 -38 44 -60 71 -22 27 -45 53 -50 59 -6 6 -33 38 -60
71 -28 33 -60 71 -72 85 -45 50 -72 82 -105 122 -18 23 -37 46 -43 52 -5 6
-37 43 -70 81 -33 39 -74 86 -92 105 -18 19 -33 39 -33 44 0 5 -6 14 -14 20
-13 10 -59 63 -196 226 -25 29 -53 60 -62 69 -10 8 -18 19 -18 24 0 4 -10 18
-23 30 -12 12 -45 49 -72 82 -28 33 -54 65 -60 71 -5 6 -26 30 -45 54 -188
226 -327 304 -553 313 -27 1 -51 0 -53 -3z"/>
<path d="M16799 16766 c-136 -47 -252 -137 -320 -247 -19 -30 -104 -193 -189
-364 -85 -170 -158 -312 -161 -315 -4 -3 -10 -16 -14 -30 -4 -14 -10 -27 -14
-30 -8 -7 -124 -244 -121 -249 1 -2 -2 -7 -7 -10 -4 -3 -58 -105 -118 -226
-60 -121 -117 -231 -126 -245 -9 -14 -17 -28 -18 -33 0 -4 -13 -31 -28 -60
-15 -28 -28 -57 -29 -64 -1 -7 -10 -25 -21 -40 -10 -15 -81 -154 -158 -308
-77 -154 -144 -283 -148 -286 -5 -3 -8 -9 -8 -13 1 -3 -33 -75 -76 -159 -42
-83 -113 -224 -157 -312 -44 -88 -84 -163 -90 -167 -6 -4 -8 -8 -4 -8 4 0 -19
-51 -51 -112 -32 -62 -170 -333 -306 -603 -136 -269 -251 -494 -255 -500 -4
-5 -11 -21 -15 -35 -4 -14 -10 -27 -14 -30 -9 -7 -52 -98 -51 -106 1 -4 -2
-10 -7 -13 -4 -3 -42 -73 -83 -156 -41 -82 -78 -151 -82 -153 -5 -2 -8 -9 -8
-15 0 -12 -100 -217 -110 -227 -3 -3 -14 -25 -25 -50 -10 -25 -27 -57 -38 -72
-10 -16 -15 -28 -11 -28 3 0 2 -6 -4 -12 -19 -23 -157 -303 -174 -353 -45
-129 -41 -296 9 -412 9 -21 17 -40 18 -43 2 -15 76 -120 106 -150 73 -76 209
-160 259 -160 10 0 21 -4 24 -8 6 -10 54 -15 156 -16 87 0 126 5 170 22 14 5
28 10 33 11 57 8 189 98 247 169 25 30 50 60 55 66 6 6 78 146 160 311 83 165
153 302 157 305 3 3 8 12 10 19 2 8 17 40 35 72 17 32 35 68 38 81 4 12 14 28
21 36 8 7 12 17 9 22 -3 5 -2 10 2 12 7 3 64 114 351 683 52 105 99 193 105
196 5 3 8 10 8 15 -1 5 225 10 521 11 288 1 828 4 1201 5 381 2 677 -1 677 -6
0 -5 5 -5 13 0 10 8 46 10 94 5 7 0 34 -45 61 -98 28 -54 88 -174 135 -266 47
-92 91 -174 97 -182 7 -8 9 -15 5 -15 -3 0 2 -15 13 -32 11 -18 93 -177 183
-353 294 -579 341 -670 359 -700 9 -16 16 -33 14 -37 -2 -3 7 -20 21 -36 14
-16 25 -36 25 -43 0 -18 151 -163 188 -180 18 -8 32 -17 32 -21 0 -5 3 -7 8
-6 4 1 16 -3 28 -9 55 -31 170 -52 264 -49 52 2 105 6 118 10 12 3 30 8 41 10
33 8 115 48 161 79 132 91 222 230 257 397 7 33 7 177 0 213 -12 62 -42 134
-107 260 -37 73 -129 254 -205 402 -75 149 -142 276 -147 283 -6 6 -7 12 -3
12 4 0 3 6 -3 13 -10 13 -164 311 -174 337 -5 14 39 15 381 15 l386 0 1 -275
c1 -305 4 -341 34 -419 62 -160 200 -281 370 -325 63 -17 206 -15 265 3 178
54 323 202 370 380 10 40 14 128 15 344 0 160 2 292 4 294 1 2 142 4 312 6
l309 2 70 29 c81 33 136 69 190 123 46 46 117 152 109 164 -3 5 -1 9 3 9 27 0
49 233 31 314 -12 51 -69 176 -80 176 -4 0 -8 6 -8 13 0 6 -26 38 -58 69 -62
61 -163 120 -227 133 -22 5 -47 10 -55 13 -8 2 -144 5 -302 6 -158 0 -289 4
-293 7 -3 3 -7 141 -9 305 -3 335 -8 366 -83 489 -50 82 -162 171 -263 208
-76 27 -193 40 -224 25 -14 -8 -17 -7 -11 3 5 8 4 10 -3 5 -7 -4 -20 -9 -30
-11 -57 -11 -114 -31 -165 -57 -60 -32 -172 -135 -182 -169 -4 -10 -11 -19
-16 -19 -5 0 -9 -9 -9 -20 0 -11 -4 -20 -8 -20 -8 0 -29 -50 -37 -90 -3 -11
-8 -30 -11 -42 -4 -13 -8 -153 -9 -313 -2 -159 -3 -292 -4 -295 -1 -3 -296 -5
-656 -5 l-655 0 -19 35 c-10 19 -72 141 -137 270 -66 129 -121 237 -124 240
-6 5 -33 61 -34 70 -1 3 -4 10 -8 15 -6 11 -157 304 -332 650 -59 116 -111
214 -117 219 -5 6 -9 18 -9 28 0 10 -5 18 -12 18 -6 0 -9 3 -5 6 3 3 -6 24
-20 47 -14 22 -26 45 -27 51 -1 6 -5 17 -10 24 -5 8 -48 91 -96 185 -48 95
-146 288 -219 430 -72 142 -131 259 -131 261 0 4 271 183 315 208 84 48 281
130 345 143 8 2 35 8 60 15 25 7 53 14 62 16 10 2 28 6 41 9 12 3 38 8 57 11
19 3 53 9 75 14 22 4 47 8 55 8 8 1 42 4 75 9 74 9 433 9 495 0 25 -4 63 -9
85 -12 36 -5 92 -14 120 -20 6 -2 24 -5 40 -8 38 -7 129 -32 220 -59 39 -12
75 -22 80 -24 6 -1 32 -11 57 -23 26 -11 50 -21 53 -21 7 0 151 -66 180 -82
11 -6 49 -27 85 -46 36 -19 72 -41 81 -48 8 -8 20 -14 26 -14 6 0 13 -4 15 -8
2 -4 21 -19 43 -32 42 -25 202 -148 240 -184 102 -98 135 -125 170 -136 80
-27 136 -9 220 71 68 65 103 95 140 124 14 11 36 29 48 40 12 12 37 30 55 40
17 11 32 23 32 27 0 4 6 8 14 8 8 0 16 3 18 8 11 26 390 232 426 232 7 0 12 4
12 8 0 5 6 9 13 10 6 0 57 16 112 36 55 19 112 37 125 40 14 3 41 10 60 15 40
13 171 41 215 47 17 2 44 6 62 9 176 28 525 23 698 -9 17 -3 41 -8 55 -10 14
-3 25 -5 25 -6 0 -2 8 -3 60 -14 17 -3 44 -8 60 -12 17 -3 37 -8 45 -11 8 -3
21 -7 29 -9 34 -7 207 -67 215 -75 6 -5 16 -9 24 -9 17 0 265 -120 273 -133 3
-5 8 -7 10 -6 2 2 18 -6 34 -16 91 -56 140 -90 143 -97 2 -4 8 -8 14 -8 9 0
69 -43 104 -75 7 -5 31 -26 55 -45 24 -19 60 -51 80 -70 21 -19 46 -42 56 -52
17 -15 33 -32 139 -149 23 -24 69 -83 102 -129 34 -47 65 -89 69 -95 18 -22
90 -143 113 -190 14 -27 31 -56 38 -63 6 -7 12 -17 12 -22 0 -5 12 -35 26 -67
15 -32 34 -74 42 -93 9 -19 17 -41 18 -48 1 -8 6 -21 10 -30 4 -9 8 -20 9 -24
2 -5 4 -10 5 -13 1 -3 3 -8 4 -12 3 -13 38 -126 47 -153 8 -24 14 -52 24 -110
4 -24 9 -48 20 -100 9 -43 21 -148 28 -255 1 -22 6 -46 10 -52 5 -7 4 -13 0
-13 -7 0 -9 -64 -3 -80 1 -3 1 -9 0 -15 -1 -5 -3 -49 -5 -96 -4 -96 -10 -160
-30 -289 -9 -57 -9 -58 -35 -165 -37 -152 -89 -299 -159 -449 -40 -86 -162
-299 -195 -341 -9 -11 -40 -51 -68 -90 -29 -38 -61 -80 -73 -92 -11 -11 -51
-56 -90 -99 -38 -42 -90 -99 -115 -125 -25 -25 -97 -102 -160 -169 -63 -67
-133 -141 -155 -164 -83 -88 -322 -340 -360 -381 -22 -24 -96 -102 -165 -175
-69 -73 -141 -150 -160 -170 -46 -49 -292 -309 -355 -375 -27 -29 -90 -96
-140 -149 -49 -53 -126 -134 -170 -180 -44 -47 -129 -137 -190 -201 -60 -65
-132 -141 -160 -170 -27 -29 -95 -101 -150 -159 -279 -297 -365 -386 -433
-445 -65 -57 -199 -161 -208 -161 -3 0 -20 -11 -38 -25 -18 -14 -38 -25 -44
-25 -6 0 -12 -4 -14 -9 -5 -14 -205 -114 -318 -159 -104 -41 -284 -95 -355
-106 -21 -4 -47 -8 -59 -11 -112 -25 -218 -28 -1013 -29 -425 -1 -773 -5 -773
-9 0 -5 -5 -5 -11 -1 -9 5 -114 7 -314 4 -17 0 -380 -1 -425 0 -35 0 -207 -1
-225 -1 -11 -1 -72 0 -135 0 -63 0 -122 0 -130 0 -8 0 -46 0 -85 0 -38 1 -494
0 -1013 -2 -518 -1 -942 2 -942 6 0 5 -6 5 -12 1 -13 -8 -828 -10 -6370 -16
-1831 -2 -3328 -7 -3328 -11 0 -5 -5 -5 -11 -2 -16 11 -69 12 -69 2 0 -4 -5
-5 -11 -1 -9 5 -243 9 -259 3 -3 -1 -9 0 -15 1 -24 5 -105 3 -111 -2 -3 -4
-18 -3 -33 2 -16 4 -33 5 -39 1 -5 -3 -62 -4 -127 -1 -64 3 -124 2 -133 -1 -9
-4 -25 -2 -34 3 -10 5 -18 5 -18 1 0 -7 -103 -8 -120 -2 -3 1 -9 0 -15 -1 -22
-5 -125 -3 -131 3 -3 3 -17 2 -30 -3 -16 -6 -24 -6 -24 1 0 6 -5 7 -11 3 -16
-10 -149 -11 -149 -1 0 5 -5 5 -11 1 -6 -4 -997 -8 -2203 -9 -2024 -2 -2194
-4 -2231 -19 -52 -22 -74 -43 -96 -91 -43 -93 -1 -200 94 -240 35 -14 340 -15
3349 -10 1821 3 3312 6 3314 8 1 1 37 0 79 -3 42 -3 78 -3 80 -1 4 3 118 4
133 0 4 -1 12 0 17 1 12 2 126 2 140 -1 6 -1 15 0 20 1 26 5 194 2 204 -4 6
-4 11 -4 11 1 0 4 1092 9 2428 10 1789 2 8096 12 8187 13 6 1 51 0 100 -2 50
-1 96 1 102 5 7 4 14 4 17 -1 2 -4 35 -6 73 -4 87 4 82 4 123 -1 19 -2 40 0
47 5 7 5 14 5 17 -1 4 -7 15 -7 30 -1 13 5 26 6 29 3 9 -8 87 -10 87 -1 0 4
10 4 23 -1 13 -5 30 -5 38 -1 8 5 21 5 28 1 7 -5 30 -5 51 -1 21 4 44 4 51 -1
7 -4 20 -4 28 0 9 5 25 5 36 1 11 -4 34 -4 52 1 18 4 33 3 33 -1 0 -4 15 -5
33 -1 18 5 41 5 52 1 11 -4 24 -5 28 -3 5 3 45 4 90 4 45 -1 93 -1 107 -1 14
1 32 1 40 1 8 0 35 0 60 0 25 0 51 0 58 0 6 -1 18 -1 25 -1 105 -5 935 5 997
12 125 12 165 17 165 18 0 1 25 6 75 14 14 2 48 9 75 16 28 6 57 13 65 15 31
6 106 26 120 32 8 3 22 7 31 9 9 2 29 8 45 14 16 6 31 11 34 12 3 0 11 4 18
10 6 6 12 8 12 5 0 -7 140 51 158 65 6 6 12 8 12 5 0 -3 27 7 60 24 33 16 63
29 66 28 4 0 10 4 13 9 3 5 26 20 51 32 51 26 266 166 290 190 9 8 31 26 49
40 88 66 246 220 437 426 50 55 122 131 160 171 38 40 114 120 169 179 55 59
120 128 145 154 72 76 285 302 320 340 18 19 89 95 159 169 69 74 137 146 151
161 135 144 287 305 343 362 37 39 67 72 67 73 0 1 46 51 103 110 145 153 188
198 312 331 61 65 136 144 168 177 31 32 57 60 57 62 0 1 31 35 68 73 86 89
231 246 268 292 16 19 31 37 34 40 4 3 30 37 58 75 28 39 55 75 60 80 4 6 34
53 67 105 32 52 65 106 74 120 26 42 122 241 151 315 60 151 123 359 144 478
3 15 10 55 17 90 6 34 13 76 14 92 2 17 7 62 11 100 11 84 11 422 1 520 -3 39
-8 88 -11 110 -5 52 -24 153 -44 243 -5 23 -8 42 -5 42 3 0 0 7 -7 15 -7 9
-10 18 -7 22 4 3 2 14 -4 25 -6 11 -13 30 -15 43 -4 23 -67 215 -81 245 -3 8
-7 17 -8 20 -1 3 -8 21 -15 40 -31 83 -173 352 -208 395 -4 6 -11 17 -14 25
-7 19 -140 202 -193 266 -46 56 -185 203 -233 248 -75 69 -109 99 -154 133
-27 21 -48 41 -48 45 0 4 -5 8 -11 8 -11 0 -92 60 -97 73 -2 4 -8 7 -14 7 -6
0 -25 11 -42 23 -17 13 -53 37 -81 52 -27 16 -52 32 -55 35 -3 3 -36 21 -75
40 -38 19 -78 41 -87 49 -10 8 -18 11 -18 6 0 -4 -12 0 -26 10 -23 15 -259
112 -294 121 -8 2 -53 15 -100 29 -47 14 -137 37 -200 50 -63 13 -131 27 -150
31 -43 10 -790 10 -845 1 -79 -12 -101 -17 -140 -26 -22 -5 -51 -12 -65 -15
-46 -9 -65 -14 -110 -27 -25 -7 -48 -13 -52 -15 -5 -1 -10 -3 -13 -4 -3 -1 -8
-3 -12 -4 -42 -9 -191 -64 -225 -82 -16 -9 -28 -12 -28 -8 0 3 -7 1 -15 -6 -8
-7 -15 -9 -15 -6 0 4 -12 -1 -27 -12 -16 -11 -38 -23 -51 -26 -12 -4 -55 -26
-95 -47 -40 -22 -84 -46 -99 -52 -16 -6 -28 -15 -28 -19 0 -4 -7 -8 -15 -8 -8
0 -15 -4 -15 -10 0 -5 -5 -10 -10 -10 -18 0 -255 -163 -290 -200 -24 -25 -81
-70 -88 -70 -4 0 -20 13 -37 28 -16 15 -68 56 -115 90 -47 35 -92 68 -101 75
-19 15 -28 20 -154 95 -98 58 -305 164 -305 156 0 -2 -22 7 -50 21 -27 14 -50
22 -50 19 0 -4 -6 -2 -12 4 -16 13 -259 91 -333 108 -5 1 -23 4 -40 8 -16 3
-64 12 -105 21 -41 8 -91 18 -110 21 -51 9 -716 10 -775 1 -98 -15 -121 -19
-210 -38 -176 -39 -376 -105 -486 -160 -100 -51 -335 -199 -392 -247 -9 -8
-20 -13 -23 -9 -3 3 -29 51 -57 106 -29 56 -74 127 -102 159 -46 53 -141 126
-188 145 -11 4 -34 14 -51 22 -51 25 -74 28 -206 31 -109 2 -134 0 -191 -20z
m241 -2019 c19 -38 38 -71 42 -73 4 -3 8 -14 8 -24 0 -10 3 -20 8 -22 8 -3 80
-147 82 -163 1 -5 7 -17 14 -25 7 -8 37 -64 67 -125 30 -60 56 -112 59 -115 5
-5 71 -135 296 -582 46 -91 84 -169 84 -171 0 -3 -45 -4 -100 -4 -56 1 -108
-1 -117 -4 -9 -3 -34 -2 -55 1 -21 4 -41 3 -44 -2 -3 -5 -11 -5 -17 -1 -7 5
-31 7 -54 6 -57 -4 -56 -4 -153 0 -47 1 -93 -1 -102 -5 -10 -5 -18 -5 -18 0 0
8 -58 8 -66 -1 -3 -3 -21 -1 -40 3 -19 5 -37 4 -40 -1 -3 -5 -10 -6 -16 -2
-16 9 -138 10 -138 0 0 -5 -5 -5 -11 -1 -6 4 -44 7 -84 7 -40 0 -78 -3 -84 -7
-6 -4 -11 -4 -11 1 0 4 -32 8 -70 8 -39 0 -70 -4 -70 -8 0 -5 -5 -5 -12 -1 -7
4 -38 8 -70 7 -32 0 -56 2 -55 6 28 61 94 187 100 189 4 2 7 9 7 17 0 7 12 34
27 61 15 27 28 55 30 63 1 8 5 17 10 20 4 3 19 29 31 56 13 28 28 57 32 65 5
8 56 110 114 225 59 116 115 226 125 245 11 19 42 82 71 140 29 58 57 111 62
118 6 6 7 12 3 12 -4 0 -2 6 4 13 15 19 71 130 71 143 0 5 5 15 12 22 14 14
21 5 68 -91z"/>
<path d="M3360 16773 c-8 -2 -557 -4 -1220 -6 l-1205 -3 -65 -21 c-126 -43
-254 -138 -319 -237 -14 -23 -30 -44 -36 -48 -5 -4 -6 -8 -1 -8 5 0 3 -6 -3
-14 -15 -18 -48 -117 -57 -169 -7 -42 -8 -633 -2 -3737 2 -1571 5 -1746 29
-1785 3 -5 9 -22 13 -37 10 -42 70 -139 121 -196 38 -42 147 -126 165 -127 3
0 10 -4 17 -8 14 -9 88 -36 118 -43 50 -13 114 -14 650 -14 578 1 660 1 774 0
35 -1 66 2 69 4 2 3 12 1 22 -4 10 -5 20 -6 24 -3 6 6 58 7 171 4 22 -1 77 0
123 1 45 2 82 0 82 -4 0 -4 7 -5 15 -2 24 9 165 10 165 1 0 -5 5 -5 11 -1 13
8 309 12 314 4 3 -5 60 -5 60 -1 0 1 50 3 110 6 112 4 252 14 283 20 10 2 45
6 77 10 58 7 71 9 118 20 12 3 38 8 57 11 19 3 49 9 65 14 17 5 44 12 60 15
32 6 41 9 65 17 8 3 42 13 75 22 62 18 176 58 232 82 17 8 34 14 37 14 3 0 34
14 68 30 34 17 67 30 74 30 6 0 17 7 24 15 7 8 21 15 31 15 11 0 19 5 19 10 0
6 5 10 12 10 15 0 222 120 226 131 2 5 8 9 14 9 11 0 206 139 232 165 8 8 17
15 20 15 16 0 318 293 349 337 12 17 25 29 29 27 4 -3 8 1 8 10 0 8 4 16 8 18
6 2 40 43 115 138 23 29 165 246 200 305 37 64 147 278 147 287 0 3 10 27 22
54 12 27 23 51 23 54 1 3 8 21 16 40 27 61 103 290 115 345 1 6 10 39 19 75
18 70 20 76 35 160 6 30 12 66 15 80 13 62 17 88 20 130 2 25 5 45 6 45 1 0 3
11 4 25 1 14 6 59 11 100 16 148 10 606 -11 770 -2 14 -6 48 -9 75 -3 28 -8
61 -11 75 -3 14 -7 34 -9 45 -2 11 -7 40 -11 65 -11 69 -12 73 -28 126 -8 27
-13 57 -11 67 1 9 -2 17 -7 17 -6 0 -9 6 -7 13 2 10 -12 67 -30 117 -3 8 -6
20 -7 25 -8 32 -70 205 -90 251 -13 30 -24 57 -24 59 -1 3 -8 22 -17 43 -10
20 -18 39 -18 42 -3 12 -110 220 -137 265 -16 28 -37 65 -46 83 -9 17 -20 32
-25 32 -4 0 -8 5 -8 10 0 14 -189 284 -211 300 -4 3 -23 25 -44 50 -104 126
-343 352 -455 430 -19 13 -37 27 -40 31 -8 11 -231 154 -295 190 -92 51 -219
113 -227 111 -5 -1 -8 3 -8 10 0 6 -3 9 -6 5 -4 -3 -24 3 -45 13 -21 11 -45
20 -53 20 -8 0 -16 3 -18 8 -5 11 -284 103 -360 117 -10 2 -22 6 -27 9 -5 3
-26 8 -47 11 -22 4 -48 9 -59 12 -11 3 -29 7 -40 9 -11 1 -36 5 -55 9 -41 8
-55 10 -135 20 -33 3 -71 9 -85 11 -14 2 -92 7 -175 10 -82 3 -154 6 -160 8
-5 1 -17 1 -25 -1z m-1620 -1215 c0 -4 10 -4 23 0 28 10 1749 7 1840 -2 38 -4
76 -9 85 -11 10 -1 37 -6 62 -11 96 -17 159 -34 265 -71 180 -63 385 -177 525
-293 86 -71 250 -241 250 -260 0 -5 4 -10 9 -10 8 0 61 -72 96 -129 6 -9 13
-18 16 -21 4 -3 17 -24 29 -48 12 -23 26 -45 31 -48 5 -3 9 -14 9 -25 0 -10 4
-19 9 -19 21 0 167 -379 186 -485 2 -11 4 -21 4 -22 1 -2 2 -6 3 -10 1 -5 5
-24 10 -43 9 -37 17 -86 23 -129 2 -14 4 -26 5 -26 2 0 6 -43 15 -160 13 -184
6 -395 -19 -560 -4 -22 -9 -55 -11 -72 -3 -18 -10 -52 -15 -75 -6 -24 -13 -54
-16 -68 -3 -14 -7 -29 -8 -35 -7 -29 -59 -191 -65 -200 -3 -5 -6 -12 -7 -15
-2 -11 -16 -46 -25 -62 -5 -10 -9 -25 -9 -33 0 -8 -5 -15 -12 -15 -6 0 -9 -3
-6 -6 3 -3 -14 -44 -39 -92 -115 -220 -253 -396 -438 -557 -42 -37 -172 -135
-179 -135 -3 0 -33 -18 -67 -40 -34 -22 -66 -40 -72 -40 -5 0 -21 -8 -35 -19
-25 -17 -205 -90 -234 -95 -7 -1 -17 -4 -23 -7 -10 -6 -54 -19 -90 -25 -11 -2
-49 -11 -85 -19 -36 -8 -85 -17 -110 -19 -25 -3 -45 -5 -45 -6 0 -12 -1937
-21 -1956 -9 -6 3 -10 19 -10 35 2 44 2 58 2 144 0 44 0 86 0 93 0 6 -1 103
-3 215 -2 111 1 202 5 202 5 0 5 5 1 11 -9 15 -12 3323 -3 3329 12 8 79 6 79
-2z"/>
</g>
</svg>
