<?xml version="1.0" encoding="utf-8"?>
<!-- Generator: Adobe Illustrator 24.0.1, SVG Export Plug-In . SVG Version: 6.00 Build 0)  -->
<svg version="1.1" id="Layer_1" xmlns="http://www.w3.org/2000/svg" xmlns:xlink="http://www.w3.org/1999/xlink" x="0px" y="0px"
	 viewBox="0 0 1271.6 406.9" style="enable-background:new 0 0 1271.6 406.9;" xml:space="preserve">
<style type="text/css">
	.st0{fill:#2580C3;}
	.st1{fill:#2BA8E0;}
	.st2{fill:#2A60AC;}
	.st3{fill:#75B743;}
	.st4{fill:#324B81;}
	.st5{fill:#282465;}
	.st6{fill:#262262;}
	.st7{fill:#262260;}
	.st8{fill:#34A5DD;}
	.st9{fill:#2580BE;}
	.st10{fill:#354B81;}
	.st11{fill:#25215D;}
	.st12{fill:#2960AC;}
	.st13{fill:#2380C3;}
	.st14{fill:#344B81;}
	.st15{fill:#272362;}
	.st16{fill:#EC1C24;}
	.st17{fill:url(#SVGID_1_);}
	.st18{fill:url(#SVGID_2_);}
</style>
<g>
	<g>
		<path class="st0" d="M52.9,323.5c-16.6,0-30.1-13.4-30.2-30.1L22.3,31.3c0-16.6,13.4-30.1,30.1-30.2c16.6,0,30.1,13.4,30.2,30.1
			L83,293.3C83,310,69.6,323.5,52.9,323.5"/>
		<polygon class="st1" points="170,1 52.4,1.1 82.6,61.4 170.1,61.2 		"/>
		<path class="st2" d="M52.4,1.1c-16.6,0-30.1,13.5-30.1,30.2c0,16.6,13.5,30.1,30.2,30.1h30.1V31.3C82.6,14.6,69.1,1.1,52.4,1.1"/>
		<path class="st3" d="M170.4,263.1"/>
		<polygon class="st4" points="52.9,323.5 171.6,323.3 170.4,263.1 83,263.2 		"/>
		<path class="st5" d="M83,263.2H52.9c-16.6,0-30.1,13.5-30.1,30.2c0,16.6,13.5,30.1,30.2,30.1l0,0c16.6,0,30.1-13.5,30.1-30.2
			L83,263.2"/>
		<path class="st4" d="M262.1,162c-0.1-58.5-38.8-100.9-92-100.8L172,1c85.7,0.9,150.3,69.7,150.4,160.9L262.1,162z"/>
		<path class="st6" d="M170,1L170,1c-16.6,0-30.1,13.5-30.1,30.2c0,16.6,13.5,30.1,30.2,30.1l0,0h1.1c16.6,0,30.1-13.5,30.1-30.2
			c0-16.3-13.1-29.6-29.3-30.1C171.3,1,170.7,1,170,1"/>
		<path class="st1" d="M172.4,323.3c85.8-1.1,150.1-70.2,150-161.4l-60.3,0.1c0.1,58.5-38.5,101-91.7,101.1l0,0L172.4,323.3z"/>
		<path class="st5" d="M171.5,263h-1.1c-16.6,0-30.1,13.5-30.1,30.2c0,16.6,13.5,30.1,30.2,30.1c0.6,0,1.3,0,1.9,0
			c16.3-0.5,29.3-13.8,29.3-30.2C201.6,276.5,188.1,263,171.5,263"/>
		<path class="st7" d="M292.2,131.8c-16.6,0-30.1,13.5-30.1,30.2l0,0c0,16.6,13.5,30.1,30.2,30.1c16.6,0,30.1-13.5,30.1-30.2l0,0
			C322.4,145.2,308.9,131.8,292.2,131.8"/>
		<path class="st8" d="M368.4,32.2l0.4,260.5c0,16.6,13.5,30.1,30.2,30.1c16.6,0,30.1-13.5,30.1-30.2l-0.3-180l-0.1-82.1L368.4,32.2
			z"/>
		<path class="st9" d="M375.6,50.1l53.2,62.5l169.4,199.1c-0.1-0.1-0.2-0.3-0.3-0.4c5.9,7.2,13.3,9.5,10.8,8.4
			c29.4,13.5,56.2-22.6,35.5-46.9L591,210.3l-169.2-199L375.6,50.1z"/>
		<path class="st10" d="M651.4,289.4L651,30.1C651,13.5,637.5,0,620.8,0c-16.6,0-30.1,13.5-30.1,30.2l0.3,180l0.1,82.1
			c0,21.9,21.5,29.1,17.5,27.3C631.8,330.2,653.3,310.2,651.4,289.4z"/>
		<path class="st11" d="M591,210.2l0.1,82.1c0,21.9,21.5,29.1,17.5,27.3c29.4,13.5,56.2-22.6,35.5-46.9L591,210.2"/>
		<path class="st12" d="M398.5,0.4c-25.5,0-39.6,30.1-22.9,49.7l53.2,62.5l-0.1-82.1C428.6,13.8,415.1,0.4,398.5,0.4"/>
		<path class="st13" d="M716.2,322.4c-22.3,0-37.1-23.6-26.9-43.7L822,16.4c7.5-14.8,25.6-20.8,40.5-13.3
			c14.8,7.5,20.8,25.6,13.3,40.5L743.1,305.9C737.7,316.4,727.1,322.4,716.2,322.4"/>
		<path class="st14" d="M955.5,305.5c7.6,14.8,25.7,20.7,40.5,13.2c14.8-7.6,20.7-25.7,13.2-40.5L875.8,16.6
			c4.1,8.2,4.3,18.2-0.1,27l-26.8,52.9L955.5,305.5z"/>
		<path class="st15" d="M848.8-0.2c-22.4,0-37,23.8-26.8,43.8l26.9,52.8l26.8-52.9C886,23.3,870.9-0.2,848.8-0.2"/>
		<path class="st16" d="M1096.7,167.2h-25.6v-25.6c0-14.6-11.8-26.3-26.4-26.3s-26.3,11.8-26.3,26.4v25.5l-205.6,0.3l-26.8,53
			l232.5-0.4v25.5c0,14.6,11.8,26.3,26.4,26.3s26.3-11.8,26.3-26.4v-25.6h25.6c14.6,0,26.3-11.8,26.3-26.4l0,0
			C1123.1,178.9,1111.2,167.1,1096.7,167.2z"/>
		
			<linearGradient id="SVGID_1_" gradientUnits="userSpaceOnUse" x1="779.5392" y1="245.2974" x2="917.3392" y2="245.2974" gradientTransform="matrix(1 -1.621937e-03 -1.621937e-03 -1 6.8157 440.5953)">
			<stop  offset="0" style="stop-color:#9D1522"/>
			<stop  offset="1" style="stop-color:#BE1E2D;stop-opacity:0"/>
		</linearGradient>
		<polygon class="st17" points="923.7,167.4 812.8,167.5 786,220.5 923.8,220.3 		"/>
		<g>
			<path class="st16" d="M1015.9,405.3L9.1,406.9c-5,0-9-4-9.1-9c0-5,4-9,9-9.1l1006.8-1.6c28.8,0,56.7-12.1,76.4-33l126-133.5
				c0.3-0.3,0.5-0.7,0.8-1c46.2-46.4,46-121.7-0.3-167.9C1172.3,5.6,1097,5.7,1050.8,52c-3.5,3.5-9.2,3.5-12.8,0
				c-32-31.9-80.4-42.9-123.1-27.9c-1.5,0.5-3.1,1.1-4.6,1.7c-7.6,3-22.9,13.9-22.9,13.9l-8.1-15.9c0,0,14.9-11.1,24.3-14.8
				c1.8-0.7,3.5-1.4,5.3-2c46.4-16.3,98.6-5.9,135.4,26.2c53.6-47.3,135.7-45.4,187.1,5.7c53.2,53,53.6,139.2,1.1,192.7
				c-0.2,0.2-0.4,0.4-0.5,0.6l-126.5,134.4C1082.3,391.1,1049.7,405.2,1015.9,405.3z"/>
		</g>
		<g>
			<g>
				
					<linearGradient id="SVGID_2_" gradientUnits="userSpaceOnUse" x1="873.358" y1="411.978" x2="1044.8119" y2="411.978" gradientTransform="matrix(1 -1.621937e-03 -1.621937e-03 -1 6.8157 440.5953)">
					<stop  offset="0" style="stop-color:#9D1522"/>
					<stop  offset="9.191442e-02" style="stop-color:#AA1826;stop-opacity:0.9081"/>
					<stop  offset="0.2357" style="stop-color:#B51C2A;stop-opacity:0.7643"/>
					<stop  offset="0.438" style="stop-color:#BC1D2C;stop-opacity:0.562"/>
					<stop  offset="1" style="stop-color:#BE1E2D;stop-opacity:0"/>
				</linearGradient>
				<path class="st18" d="M1051,52c-3.5,3.5-9.2,3.5-12.8,0c-32-31.9-80.4-42.9-123.1-27.9c-1.5,0.5-3.1,1.1-4.6,1.7
					c-7.6,3-22.9,13.9-22.9,13.9l-8.1-15.9c0,0,14.9-11.1,24.3-14.8c1.8-0.7,3.5-1.4,5.3-2c46.4-16.3,98.6-5.9,135.4,26.2"/>
			</g>
		</g>
	</g>
</g>
</svg>
