<?xml version="1.0" encoding="utf-8"?>
<!-- Generator: Adobe Illustrator 24.0.1, SVG Export Plug-In . SVG Version: 6.00 Build 0)  -->
<svg version="1.1" id="Layer_1" xmlns="http://www.w3.org/2000/svg" xmlns:xlink="http://www.w3.org/1999/xlink" x="0px" y="0px"
	 viewBox="0 0 1920 1080" style="enable-background:new 0 0 1920 1080;" xml:space="preserve">
<style type="text/css">
	.st0{fill:#2580C3;}
	.st1{fill:#2BA8E0;}
	.st2{fill:#2A60AC;}
	.st3{fill:#75B743;}
	.st4{fill:#324B81;}
	.st5{fill:#282465;}
	.st6{fill:#262262;}
	.st7{fill:#262260;}
	.st8{fill:#34A5DD;}
	.st9{fill:#2580BE;}
	.st10{fill:#354B81;}
	.st11{fill:#25215D;}
	.st12{fill:#2960AC;}
	.st13{fill:#2380C3;}
	.st14{fill:#344B81;}
	.st15{fill:#272362;}
	.st16{fill:#EC1C24;}
	.st17{fill:url(#SVGID_1_);}
	.st18{fill:url(#SVGID_2_);}
</style>
<g>
	<g>
		<path class="st0" d="M360.4,653.8c-16.6,0-30.1-13.4-30.2-30.1l-0.4-262.1c0-16.6,13.4-30.1,30.1-30.2c16.6,0,30.1,13.4,30.2,30.1
			l0.4,262.1C390.5,640.3,377.1,653.8,360.4,653.8"/>
		<polygon class="st1" points="477.5,331.3 359.9,331.4 390.1,391.7 477.6,391.5 		"/>
		<path class="st2" d="M359.9,331.4c-16.6,0-30.1,13.5-30.1,30.2c0,16.6,13.5,30.1,30.2,30.1l30.1,0l0-30.1
			C390.1,344.9,376.6,331.4,359.9,331.4"/>
		<path class="st3" d="M477.9,593.4"/>
		<polygon class="st4" points="360.4,653.8 479.1,653.6 477.9,593.4 390.5,593.5 		"/>
		<path class="st5" d="M390.5,593.5l-30.1,0c-16.6,0-30.1,13.5-30.1,30.2c0,16.6,13.5,30.1,30.2,30.1l0,0
			c16.6,0,30.1-13.5,30.1-30.2L390.5,593.5"/>
		<path class="st4" d="M569.6,492.3c-0.1-58.5-38.8-100.9-92-100.8l1.9-60.2c85.7,0.9,150.3,69.7,150.4,160.9L569.6,492.3z"/>
		<path class="st6" d="M477.5,331.3L477.5,331.3c-16.6,0-30.1,13.5-30.1,30.2c0,16.6,13.5,30.1,30.2,30.1l0,0l1.1,0
			c16.6,0,30.1-13.5,30.1-30.2c0-16.3-13.1-29.6-29.3-30.1C478.8,331.3,478.2,331.3,477.5,331.3"/>
		<path class="st1" d="M479.9,653.6c85.8-1.1,150.1-70.2,150-161.4l-60.3,0.1c0.1,58.5-38.5,101-91.7,101.1l0,0L479.9,653.6z"/>
		<path class="st5" d="M479,593.3l-1.1,0c-16.6,0-30.1,13.5-30.1,30.2c0,16.6,13.5,30.1,30.2,30.1c0.6,0,1.3,0,1.9,0
			c16.3-0.5,29.3-13.8,29.3-30.2C509.1,606.8,495.6,593.3,479,593.3"/>
		<path class="st7" d="M599.7,462.1c-16.6,0-30.1,13.5-30.1,30.2l0,0c0,16.6,13.5,30.1,30.2,30.1c16.6,0,30.1-13.5,30.1-30.2l0,0
			C629.9,475.5,616.4,462.1,599.7,462.1"/>
		<path class="st8" d="M675.9,362.5l0.4,260.5c0,16.6,13.5,30.1,30.2,30.1c16.6,0,30.1-13.5,30.1-30.2l-0.3-180l-0.1-82.1
			L675.9,362.5z"/>
		<path class="st9" d="M683.1,380.4l53.2,62.5l169.4,199.1c-0.1-0.1-0.2-0.3-0.3-0.4c5.9,7.2,13.3,9.5,10.8,8.4
			c29.4,13.5,56.2-22.6,35.5-46.9l-53.2-62.5L729.3,341.6L683.1,380.4z"/>
		<path class="st10" d="M958.9,619.7l-0.4-259.3c0-16.6-13.5-30.1-30.2-30.1c-16.6,0-30.1,13.5-30.1,30.2l0.3,180l0.1,82.1
			c0,21.9,21.5,29.1,17.5,27.3C939.3,660.5,960.8,640.5,958.9,619.7z"/>
		<path class="st11" d="M898.5,540.5l0.1,82.1c0,21.9,21.5,29.1,17.5,27.3c29.4,13.5,56.2-22.6,35.5-46.9L898.5,540.5"/>
		<path class="st12" d="M706,330.7c-25.5,0-39.6,30.1-22.9,49.7l53.2,62.5l-0.1-82.1C736.1,344.1,722.6,330.7,706,330.7"/>
		<path class="st13" d="M1023.7,652.7c-22.3,0-37.1-23.6-26.9-43.7l132.7-262.3c7.5-14.8,25.6-20.8,40.5-13.3
			c14.8,7.5,20.8,25.6,13.3,40.5l-132.7,262.3C1045.2,646.7,1034.6,652.7,1023.7,652.7"/>
		<path class="st14" d="M1263,635.8c7.6,14.8,25.7,20.7,40.5,13.2c14.8-7.6,20.7-25.7,13.2-40.5l-133.4-261.6
			c4.1,8.2,4.3,18.2-0.1,27l-26.8,52.9L1263,635.8z"/>
		<path class="st15" d="M1156.3,330.1c-22.4,0-37,23.8-26.8,43.8l26.9,52.8l26.8-52.9C1193.5,353.6,1178.4,330.1,1156.3,330.1"/>
		<path class="st16" d="M1404.2,497.5l-25.6,0l0-25.6c0-14.6-11.8-26.3-26.4-26.3c-14.6,0-26.3,11.8-26.3,26.4l0,25.5l-205.6,0.3
			l-26.8,53l232.5-0.4l0,25.5c0,14.6,11.8,26.3,26.4,26.3s26.3-11.8,26.3-26.4l0-25.6l25.6,0c14.6,0,26.3-11.8,26.3-26.4v0
			C1430.6,509.2,1418.7,497.4,1404.2,497.5z"/>
		
			<linearGradient id="SVGID_1_" gradientUnits="userSpaceOnUse" x1="1087.0687" y1="504.4019" x2="1224.8163" y2="504.4019" gradientTransform="matrix(1 -1.621937e-03 1.621937e-03 1 5.5997 21.6941)">
			<stop  offset="0" style="stop-color:#9D1522"/>
			<stop  offset="1" style="stop-color:#BE1E2D;stop-opacity:0"/>
		</linearGradient>
		<polygon class="st17" points="1231.2,497.7 1120.3,497.8 1093.5,550.8 1231.3,550.6 		"/>
		<g>
			<path class="st16" d="M1323.4,735.6l-1006.8,1.6c-5,0-9-4-9.1-9c0-5,4-9,9-9.1l1006.8-1.6c28.8,0,56.7-12.1,76.4-33l126-133.5
				c0.3-0.3,0.5-0.7,0.8-1c46.2-46.4,46-121.7-0.3-167.9c-46.4-46.2-121.7-46.1-167.9,0.2c-3.5,3.5-9.2,3.5-12.8,0
				c-32-31.9-80.4-42.9-123.1-27.9c-1.5,0.5-3.1,1.1-4.6,1.7c-7.6,3-22.9,13.9-22.9,13.9l-8.1-15.9c0,0,14.9-11.1,24.3-14.8
				c1.8-0.7,3.5-1.4,5.3-2c46.4-16.3,98.6-5.9,135.4,26.2c53.6-47.3,135.7-45.4,187.1,5.7c53.2,53,53.6,139.2,1.1,192.7
				c-0.2,0.2-0.4,0.4-0.5,0.6L1413,696.9C1389.8,721.4,1357.2,735.5,1323.4,735.6z"/>
		</g>
		<g>
			<g>
				
					<linearGradient id="SVGID_2_" gradientUnits="userSpaceOnUse" x1="1180.8739" y1="337.7961" x2="1352.3014" y2="337.7961" gradientTransform="matrix(1 -1.621937e-03 1.621937e-03 1 5.5997 21.6941)">
					<stop  offset="0" style="stop-color:#9D1522"/>
					<stop  offset="9.191442e-02" style="stop-color:#AA1826;stop-opacity:0.9081"/>
					<stop  offset="0.2357" style="stop-color:#B51C2A;stop-opacity:0.7643"/>
					<stop  offset="0.438" style="stop-color:#BC1D2C;stop-opacity:0.562"/>
					<stop  offset="1" style="stop-color:#BE1E2D;stop-opacity:0"/>
				</linearGradient>
				<path class="st18" d="M1358.5,382.3c-3.5,3.5-9.2,3.5-12.8,0c-32-31.9-80.4-42.9-123.1-27.9c-1.5,0.5-3.1,1.1-4.6,1.7
					c-7.6,3-22.9,13.9-22.9,13.9l-8.1-15.9c0,0,14.9-11.1,24.3-14.8c1.8-0.7,3.5-1.4,5.3-2c46.4-16.3,98.6-5.9,135.4,26.2"/>
			</g>
		</g>
		<g>
			<g>
				<path class="st15" d="M357.6,774.2c-0.1,0-0.2,0-0.3,0l-17.2,0c-2.4,0-4.4,2-4.4,4.4l0.1,38.4c0,2.4,2,4.4,4.4,4.4l17.4,0v0
					c0,0,0.1,0,0.1,0c0,0,0,0,0,0l0,0c12.6-0.2,22-10.3,22-23.7C379.7,784.5,370.2,774.4,357.6,774.2z M357.4,812.6l-12.8,0l0-29.6
					l12.8,0c7.8,0,13.5,6.2,13.5,14.8C370.9,806.4,365.2,812.6,357.4,812.6z"/>
				<path class="st15" d="M425,789.8c0-8.6-7-15.6-15.7-15.6l-18.5,0c-2.4,0-4.4,2-4.4,4.4l0.1,38.4c0,2.4,2,4.4,4.4,4.4
					s4.4-2,4.4-4.4l0-11.5l10.8,0v0h0l11,14.2c0.9,1.1,2.2,1.7,3.5,1.7c0.9,0,1.9-0.3,2.7-0.9c1.9-1.5,2.3-4.3,0.8-6.2l-8.1-10.4
					C421.3,801.3,425,796,425,789.8z M409.3,796.6c-0.1,0-1,0-1.1,0l0,0.1c0,0,0,0-0.1,0l0-0.1l-12.9,0l0-13.6l14.1,0
					c3.8,0,6.8,3,6.8,6.8C416.2,793.5,413.1,796.6,409.3,796.6z"/>
				<path class="st15" d="M408.2,796.6C408.2,796.6,408.2,796.6,408.2,796.6C408.3,796.6,408.3,796.6,408.2,796.6z"/>
				<path class="st15" d="M455.3,772.8C455.3,772.8,455.3,772.8,455.3,772.8c-13.8,0-25,11.3-25,25.1c0,13.8,11.3,25,25.1,25
					c13.8,0,25-11.3,25-25.1C480.3,783.9,469.1,772.7,455.3,772.8z M455.3,814c-8.9,0-16.2-7.2-16.2-16.2c0-8.9,7.2-16.2,16.2-16.2
					c0,0,0,0,0,0c8.9,0,16.2,7.2,16.2,16.2C471.5,806.7,464.3,813.9,455.3,814z"/>
				<path class="st15" d="M529.2,798.1L529.2,798.1L529.2,798.1c0-2.4-2-4.4-4.4-4.4l-15.7,0c-2.4,0-4.4,2-4.4,4.4
					c0,2.4,2,4.4,4.4,4.4l11.3,0h0l0,7.7c-2.7,1.9-6.2,3.1-9.7,3.1l0,0c-8.6,0-15.5-6.9-15.6-15.5c0-8.6,6.9-15.5,15.5-15.6
					c4,0,7.9,1.5,10.8,4.3c0.9,0.8,2,1.2,3.1,1.2c1.2,0,2.3-0.5,3.2-1.4c1.7-1.8,1.6-4.6-0.1-6.2c-4.6-4.4-10.6-6.8-16.9-6.8
					c-13.4,0-24.3,11-24.3,24.4c0,13.4,11,24.3,24.4,24.3c6.2,0,12.5-2.4,16.9-6.4c0,0,0,0,0,0c0,0,0.1-0.1,0.1-0.1
					c0.1-0.1,0.2-0.2,0.4-0.4c0,0,0.1-0.1,0.1-0.1c0.1-0.2,0.2-0.3,0.3-0.5c0-0.1,0.1-0.1,0.1-0.2c0-0.1,0.1-0.2,0.1-0.3
					c0-0.1,0.1-0.2,0.1-0.3c0,0,0-0.1,0-0.1c0,0.1-0.1,0.2-0.1,0.3c0.1-0.3,0.2-0.5,0.3-0.9c0,0.1,0,0.1-0.1,0.2c0-0.1,0-0.1,0-0.2
					c0,0,0-0.1,0-0.1c0,0,0-0.1,0-0.1c0-0.1,0-0.1,0-0.2c0-0.1,0-0.2,0-0.3c0-0.1,0-0.1,0-0.2L529.2,798.1z"/>
				<path class="st15" d="M529.2,813.1C529.2,813.1,529.2,813.1,529.2,813.1C529.1,813.1,529.1,813.1,529.2,813.1
					C529.1,813.1,529.2,813.1,529.2,813.1z"/>
				<path class="st15" d="M561.1,776.4c0.1,0.1,0.1,0.2,0.1,0.4c-0.2-0.4-0.4-0.7-0.6-1.1c-0.1-0.1-0.2-0.2-0.3-0.3
					c-0.3-0.4-0.7-0.7-1.2-0.9c0,0,0,0-0.1-0.1c-0.1,0-0.1,0-0.2,0c-0.4-0.2-0.8-0.3-1.3-0.4c-0.1,0-0.2,0-0.3,0c-0.1,0-0.1,0-0.2,0
					c-0.5,0-0.9,0.1-1.3,0.2c-0.1,0-0.1,0.1-0.2,0.1c-0.4,0.2-0.8,0.4-1.2,0.7c-0.1,0.1-0.2,0.1-0.2,0.2c-0.4,0.3-0.7,0.7-0.9,1.2
					c0,0-0.1,0.1-0.1,0.1l-19.4,38.4c-1.5,3,0.7,6.4,3.9,6.4c1.6,0,3.2-0.9,3.9-2.4l3.1-6.1l0,0l25,0l0,0l3.1,6.1
					c1.1,2.2,3.8,3,5.9,1.9c2.2-1.1,3-3.8,1.9-5.9L561.1,776.4z M561.5,779.3c-0.1,0.4-0.2,0.7-0.4,1.1
					C561.3,780,561.4,779.6,561.5,779.3z M557.2,788.1l8,15.7l-16,0L557.2,788.1z M561.6,778.5C561.6,778.5,561.6,778.5,561.6,778.5
					c0-0.1,0-0.2,0-0.3C561.6,778.3,561.6,778.4,561.6,778.5z M561.4,777.1c0.1,0.2,0.1,0.4,0.1,0.6
					C561.5,777.5,561.5,777.3,561.4,777.1z"/>
				<path class="st15" d="M624.8,789.4c0-8.6-7-15.6-15.7-15.6l-18.5,0c-2.4,0-4.4,2-4.4,4.4l0.1,38.4c0,2.4,2,4.4,4.4,4.4
					s4.4-2,4.4-4.4l0-11.5l10.8,0v0h0l11,14.2c0.9,1.1,2.2,1.7,3.5,1.7c0.9,0,1.9-0.3,2.7-0.9c1.9-1.5,2.3-4.3,0.8-6.2l-8.1-10.4
					C621.1,801,624.8,795.7,624.8,789.4z M609.1,796.3c-0.1,0-1,0-1.1,0l0,0.1c0,0,0,0-0.1,0l0-0.1l-12.9,0l0-13.6l14.1,0
					c3.8,0,6.8,3,6.8,6.8C615.9,793.2,612.9,796.3,609.1,796.3z"/>
				<path class="st15" d="M608,796.3C608,796.3,608,796.3,608,796.3C608.1,796.3,608.1,796.3,608,796.3z"/>
				<path class="st15" d="M636.1,773.8c-2.4,0-4.4,2-4.4,4.4l0.1,38.4c0,2.4,2,4.4,4.4,4.4c2.4,0,4.4-2,4.4-4.4l-0.1-38.4
					C640.6,775.7,638.6,773.8,636.1,773.8z"/>
				<path class="st15" d="M673.5,776.2c0.1,0.1,0.1,0.2,0.1,0.4c-0.2-0.4-0.4-0.7-0.6-1.1c-0.1-0.1-0.2-0.2-0.3-0.3
					c-0.3-0.4-0.7-0.7-1.2-0.9c0,0,0,0-0.1-0.1c-0.1,0-0.1,0-0.2,0c-0.4-0.2-0.8-0.3-1.3-0.4c-0.1,0-0.2,0-0.3,0c-0.1,0-0.1,0-0.2,0
					c-0.5,0-0.9,0.1-1.3,0.2c-0.1,0-0.1,0.1-0.2,0.1c-0.4,0.2-0.8,0.4-1.2,0.7c-0.1,0.1-0.2,0.1-0.2,0.2c-0.4,0.3-0.7,0.7-0.9,1.2
					c0,0-0.1,0.1-0.1,0.1l-19.4,38.4c-1.5,3,0.7,6.4,3.9,6.4c1.6,0,3.2-0.9,3.9-2.4l3.1-6.1l0,0l25,0l0,0l3.1,6.1
					c1.1,2.2,3.8,3,5.9,1.9c2.2-1.1,3-3.8,1.9-5.9L673.5,776.2z M673.9,779.1c-0.1,0.4-0.2,0.7-0.4,1.1
					C673.7,779.8,673.8,779.4,673.9,779.1z M669.6,787.9l8,15.7l-16,0L669.6,787.9z M674,778.3C674,778.3,674,778.3,674,778.3
					c0-0.1,0-0.2,0-0.3C674,778.1,674,778.2,674,778.3z M673.8,777c0.1,0.2,0.1,0.4,0.1,0.6C673.9,777.3,673.9,777.1,673.8,777z"/>
				<path class="st15" d="M768.7,817.5C768.7,817.5,768.7,817.5,768.7,817.5c0.1-0.3,0.1-0.6,0.2-0.9c0-0.2,0-0.3,0-0.5
					c0-0.1,0-0.2,0-0.2l-0.1-38c0-2.4-2-4.4-4.4-4.4s-4.4,2-4.4,4.4l0,26.4v0l0,0l-24.8-29.1l0,0c-0.8-1-2-1.6-3.4-1.6
					c-2.7,0-4.5,2.3-4.4,4.7l0,0l0.1,38.2c0,2.4,2,4.4,4.4,4.4c2.4,0,4.4-2,4.4-4.4l0-26.4l24.8,29.2c0,0,0,0,0-0.1c0,0,0,0,0.1,0.1
					c0.2,0.2,0.4,0.4,0.6,0.6c0.1,0.1,0.1,0.1,0.2,0.2c0.1,0.1,0.3,0.2,0.4,0.3c0.1,0,0.1,0.1,0.2,0.1c0.1,0.1,0.2,0.1,0.2,0.1
					c0,0,0,0,0,0c0.1,0,0.1,0,0,0c0,0,0,0,0,0c0.5,0.2,1,0.3,1.4,0.4c0.1,0,0.3,0,0.4,0c0.3,0,0.6,0,0.9-0.1c0.1,0,0.3-0.1,0.4-0.1
					c0.3-0.1,0.6-0.2,0.9-0.4c0.1-0.1,0.2-0.1,0.3-0.2c0.3-0.3,0.7-0.6,0.9-0.9c0,0,0,0,0,0c0-0.1,0.1-0.1,0.1-0.2
					c0.2-0.3,0.4-0.6,0.5-0.9C768.7,817.8,768.7,817.7,768.7,817.5z"/>
				<path class="st15" d="M800.5,772.2C800.5,772.2,800.5,772.2,800.5,772.2c-13.8,0-25,11.3-25,25.1c0,13.8,11.3,25,25.1,25
					c13.8,0,25-11.3,25-25.1C825.6,783.4,814.3,772.2,800.5,772.2z M800.6,813.4c-8.9,0-16.2-7.2-16.2-16.2
					c0-8.9,7.2-16.2,16.2-16.2c0,0,0,0,0,0c8.9,0,16.2,7.2,16.2,16.2C816.8,806.1,809.5,813.4,800.6,813.4z"/>
				<path class="st15" d="M853,818.1l17.8-38.4c1-2.2,0.1-4.8-2.2-5.9c-2.2-1-4.8-0.1-5.9,2.2L849,805.8L835.1,776
					c-1-2.2-3.7-3.2-5.9-2.1c-2.2,1-3.2,3.7-2.1,5.9l17.9,38.4c0,0.1,0.1,0.1,0.1,0.2c0.1,0.2,0.3,0.4,0.4,0.6
					c0.1,0.1,0.1,0.2,0.2,0.3c0,0,0.1,0,0.1,0.1c0,0,0,0,0,0c0.2,0.2,0.4,0.4,0.6,0.5c0.1,0.1,0.2,0.2,0.3,0.2
					c0.1,0.1,0.2,0.1,0.3,0.2c0,0,0.1,0,0.1,0.1c0.1,0.1,0.3,0.1,0.4,0.1c0,0,0.1,0,0.1,0c0.1,0,0.1,0,0.2,0.1c0.1,0,0.1,0,0.2,0
					c0.3,0.1,0.7,0.1,1,0.1c0,0,0,0,0,0s0,0,0,0c0,0,0,0,0,0c0,0,0,0,0,0c0.3,0,0.7-0.1,1-0.1c0.1,0,0.1,0,0.2,0
					c0.1,0,0.1,0,0.2-0.1c0,0,0.1,0,0.1,0c0.1,0,0.3-0.1,0.4-0.1c0,0,0.1,0,0.1-0.1c0.1-0.1,0.2-0.1,0.3-0.2
					c0.1-0.1,0.2-0.1,0.3-0.2c0.2-0.2,0.4-0.3,0.6-0.5c0,0,0,0,0,0c0,0,0.1,0,0.1-0.1c0.1-0.1,0.1-0.2,0.2-0.2
					c0.2-0.2,0.3-0.4,0.4-0.6C852.9,818.2,853,818.2,853,818.1z"/>
				<path class="st15" d="M896.4,775.8c0.1,0.1,0.1,0.2,0.1,0.4c-0.2-0.4-0.4-0.7-0.6-1.1c-0.1-0.1-0.2-0.2-0.3-0.3
					c-0.3-0.4-0.7-0.7-1.2-0.9c0,0,0,0-0.1-0.1c-0.1,0-0.1,0-0.2,0c-0.4-0.2-0.8-0.3-1.3-0.4c-0.1,0-0.2,0-0.3,0c-0.1,0-0.1,0-0.2,0
					c-0.5,0-0.9,0.1-1.3,0.2c-0.1,0-0.1,0.1-0.2,0.1c-0.4,0.2-0.8,0.4-1.2,0.7c-0.1,0.1-0.2,0.1-0.2,0.2c-0.4,0.3-0.7,0.7-0.9,1.2
					c0,0-0.1,0.1-0.1,0.1l-19.4,38.4c-1.5,3,0.7,6.4,3.9,6.4c1.6,0,3.2-0.9,3.9-2.4l3.1-6.1l0,0l25,0l0,0l3.1,6.1
					c1.1,2.2,3.8,3,5.9,1.9c2.2-1.1,3-3.8,1.9-5.9L896.4,775.8z M896.8,778.7c-0.1,0.4-0.2,0.7-0.4,1.1
					C896.6,779.4,896.7,779.1,896.8,778.7z M892.5,787.5l8,15.7l-16,0L892.5,787.5z M896.9,778C896.9,778,896.8,777.9,896.9,778
					c0-0.1,0-0.2,0-0.3C896.9,777.8,896.9,777.9,896.9,778z M896.7,776.6c0.1,0.2,0.1,0.4,0.1,0.6
					C896.8,777,896.7,776.8,896.7,776.6z"/>
				<path class="st15" d="M974.5,775.7c0.1,0.1,0.1,0.2,0.1,0.4c-0.2-0.4-0.4-0.7-0.6-1.1c-0.1-0.1-0.2-0.2-0.3-0.3
					c-0.3-0.4-0.7-0.7-1.2-0.9c0,0,0,0-0.1-0.1c-0.1,0-0.1,0-0.2,0c-0.4-0.2-0.8-0.3-1.3-0.4c-0.1,0-0.2,0-0.3,0c-0.1,0-0.1,0-0.2,0
					c-0.5,0-0.9,0.1-1.3,0.2c-0.1,0-0.1,0.1-0.2,0.1c-0.4,0.2-0.8,0.4-1.2,0.7c-0.1,0.1-0.2,0.1-0.2,0.2c-0.4,0.3-0.7,0.7-0.9,1.2
					c0,0-0.1,0.1-0.1,0.1l-19.4,38.4c-1.5,3,0.7,6.4,3.9,6.4c1.6,0,3.2-0.9,3.9-2.4l3.1-6.1l0,0l25,0l0,0l3.1,6.1
					c1.1,2.2,3.8,3,5.9,1.9c2.2-1.1,3-3.8,1.9-5.9L974.5,775.7z M974.8,778.6c-0.1,0.4-0.2,0.7-0.4,1.1
					C974.6,779.3,974.7,778.9,974.8,778.6z M970.5,787.4l8,15.7l-16,0L970.5,787.4z M974.9,777.8
					C974.9,777.8,974.9,777.8,974.9,777.8c0-0.1,0-0.2,0-0.3C974.9,777.6,974.9,777.7,974.9,777.8z M974.7,776.5
					c0.1,0.2,0.1,0.4,0.1,0.6C974.8,776.8,974.8,776.6,974.7,776.5z"/>
				<path class="st15" d="M1019.8,773.2l-15.8,0c-2.4,0-4.4,2-4.4,4.4l0.1,38.4c0,2.4,2,4.4,4.4,4.4s4.4-2,4.4-4.4l0-9.3l11.4,0
					c9.2,0,16.7-7.5,16.7-16.8C1036.5,780.6,1029,773.1,1019.8,773.2z M1019.8,797.8C1019.8,797.8,1019.8,797.8,1019.8,797.8
					C1019.8,797.8,1019.8,797.8,1019.8,797.8l-11.4,0v0l0-15.8l11.4,0c4.4,0,7.9,3.5,7.9,7.9
					C1027.7,794.3,1024.2,797.8,1019.8,797.8z"/>
				<path class="st15" d="M1063.4,775.5c0.1,0.1,0.1,0.2,0.1,0.4c-0.2-0.4-0.4-0.7-0.6-1.1c-0.1-0.1-0.2-0.2-0.3-0.3
					c-0.3-0.4-0.7-0.7-1.2-0.9c0,0,0,0-0.1-0.1c-0.1,0-0.1,0-0.2,0c-0.4-0.2-0.8-0.3-1.3-0.4c-0.1,0-0.2,0-0.3,0c-0.1,0-0.1,0-0.2,0
					c-0.5,0-0.9,0.1-1.3,0.2c-0.1,0-0.1,0.1-0.2,0.1c-0.4,0.2-0.8,0.4-1.2,0.7c-0.1,0.1-0.2,0.1-0.2,0.2c-0.4,0.3-0.7,0.7-0.9,1.2
					c0,0-0.1,0.1-0.1,0.1L1036,814c-1.5,3,0.7,6.4,3.9,6.4c1.6,0,3.2-0.9,3.9-2.4l3.1-6.1l0,0l25,0l0,0l3.1,6.1
					c1.1,2.2,3.8,3,5.9,1.9c2.2-1.1,3-3.8,1.9-5.9L1063.4,775.5z M1063.7,778.4c-0.1,0.4-0.2,0.7-0.4,1.1
					C1063.5,779.2,1063.6,778.8,1063.7,778.4z M1059.4,787.3l8,15.7l-16,0L1059.4,787.3z M1063.8,777.7
					C1063.8,777.7,1063.8,777.7,1063.8,777.7c0-0.1,0-0.2,0-0.3C1063.8,777.5,1063.8,777.6,1063.8,777.7z M1063.6,776.3
					c0.1,0.2,0.1,0.4,0.1,0.6C1063.7,776.7,1063.7,776.5,1063.6,776.3z"/>
				<path class="st15" d="M1127,788.6c0-8.6-7-15.6-15.7-15.6l-18.5,0c-2.4,0-4.4,2-4.4,4.4l0.1,38.4c0,2.4,2,4.4,4.4,4.4
					s4.4-2,4.4-4.4l0-11.5l10.8,0v0h0l11,14.2c0.9,1.1,2.2,1.7,3.5,1.7c0.9,0,1.9-0.3,2.7-0.9c1.9-1.5,2.3-4.3,0.8-6.2l-8.1-10.4
					C1123.3,800.2,1127,794.8,1127,788.6z M1111.3,795.5c-0.1,0-1,0-1.1,0l0,0.1c0,0,0,0-0.1,0l0-0.1l-12.9,0l0-13.6l14.1,0
					c3.8,0,6.8,3,6.8,6.8C1118.2,792.4,1115.1,795.5,1111.3,795.5z"/>
				<path class="st15" d="M1110.2,795.5C1110.2,795.5,1110.2,795.5,1110.2,795.5C1110.3,795.5,1110.3,795.5,1110.2,795.5z"/>
				<path class="st15" d="M1164,781.7c2.4,0,4.4-2,4.4-4.4c0-2.4-2-4.4-4.4-4.4l-25.6,0c-2.4,0-4.4,2-4.4,4.4l0.1,38.4
					c0,2.4,2,4.4,4.4,4.4l25.6,0c2.4,0,4.4-2,4.4-4.4c0-2.4-2-4.4-4.4-4.4l-21.2,0l0-10.4l17.4,0c2.4,0,4.4-2,4.4-4.4
					c0-2.4-2-4.4-4.4-4.4l-17.4,0l0-10.4L1164,781.7z"/>
				<path class="st15" d="M1195.6,781.2c4,0,7.9,1.5,10.8,4.3c1.8,1.7,4.6,1.6,6.2-0.1c1.7-1.8,1.6-4.6-0.1-6.2
					c-4.6-4.4-10.6-6.8-16.9-6.8c-13.4,0-24.3,11-24.3,24.4c0,13.4,11,24.3,24.4,24.3c6.2,0,12.1-2.4,16.7-6.6
					c2.9-2.7,0.9-7.6-3-7.6c-1.1,0-2.2,0.4-3,1.2c-2.9,2.7-6.7,4.2-10.6,4.2c-8.6,0-15.5-6.9-15.6-15.5
					C1180.1,788.2,1187,781.2,1195.6,781.2z"/>
				<path class="st15" d="M1224.7,772.8c-2.4,0-4.4,2-4.4,4.4l0.1,38.4c0,2.4,2,4.4,4.4,4.4c2.4,0,4.4-2,4.4-4.4l-0.1-38.4
					C1229.1,774.8,1227.1,772.8,1224.7,772.8z"/>
				<path class="st15" d="M1261.4,772.8c-0.1,0-0.2,0-0.3,0l-17.2,0c-2.4,0-4.4,2-4.4,4.4l0.1,38.4c0,2.4,2,4.4,4.4,4.4l17.4,0v0
					c0,0,0.1,0,0.1,0c0,0,0,0,0,0l0,0c12.6-0.2,22-10.3,22-23.7C1283.4,783,1273.9,772.9,1261.4,772.8z M1261.1,811.2L1261.1,811.2
					l-12.8,0l0-29.6l12.8,0c7.8,0,13.5,6.2,13.5,14.8C1274.6,804.9,1269,811.2,1261.1,811.2z"/>
				<path class="st15" d="M1331.9,813.5l-19.5-38.3c0.1,0.1,0.1,0.2,0.1,0.4c-0.2-0.4-0.4-0.7-0.6-1.1c-0.1-0.1-0.2-0.2-0.3-0.3
					c-0.3-0.4-0.7-0.7-1.2-0.9c0,0,0,0-0.1-0.1c-0.1,0-0.1,0-0.2,0c-0.4-0.2-0.8-0.3-1.3-0.4c-0.1,0-0.2,0-0.3,0c-0.1,0-0.1,0-0.2,0
					c-0.5,0-0.9,0.1-1.3,0.2c-0.1,0-0.1,0.1-0.2,0.1c-0.4,0.2-0.8,0.4-1.2,0.7c-0.1,0.1-0.2,0.1-0.2,0.2c-0.4,0.3-0.7,0.7-0.9,1.2
					c0,0-0.1,0.1-0.1,0.1l-19.4,38.4c-1.5,3,0.7,6.4,3.9,6.4c1.6,0,3.2-0.9,3.9-2.4l3.1-6.1l0,0l25,0l0,0l3.1,6.1
					c1.1,2.2,3.8,3,5.9,1.9C1332.1,818.3,1333,815.6,1331.9,813.5z M1312.7,778c-0.1,0.4-0.2,0.7-0.4,1.1
					C1312.5,778.7,1312.6,778.4,1312.7,778z M1308.4,786.9l8,15.7l-16,0L1308.4,786.9z M1312.8,777.3
					C1312.8,777.3,1312.8,777.3,1312.8,777.3c0-0.1,0-0.2,0-0.3C1312.8,777.1,1312.8,777.2,1312.8,777.3z M1312.6,775.9
					c0.1,0.2,0.1,0.4,0.1,0.6C1312.7,776.3,1312.7,776.1,1312.6,775.9z"/>
			</g>
		</g>
	</g>
</g>
</svg>
